<svg width="100" height="100" viewBox="0 0 100 100" fill="none" xmlns="http://www.w3.org/2000/svg">
<path d="M0 50C-9.3931e-07 56.566 1.29325 63.0676 3.8059 69.1338C6.31858 75.1999 10.0014 80.7117 14.6442 85.3546C19.287 89.9971 24.7988 93.6801 30.8649 96.1928C36.931 98.7055 43.4325 99.9986 49.9986 99.9986C56.5643 99.9986 63.0659 98.7055 69.1321 96.1928C75.1982 93.6801 80.71 89.9971 85.3528 85.3546C89.9957 80.7117 93.6783 75.1999 96.1911 69.1338C98.7038 63.0676 99.9972 56.566 99.9972 50H84.3724C79.1948 50 75.1569 54.3389 73.2605 59.1564C73.2067 59.2937 73.1512 59.4304 73.0948 59.5671C71.8385 62.6 69.9971 65.356 67.6756 67.6773C65.3543 69.9985 62.5982 71.8402 59.5653 73.0966C56.5324 74.3529 53.2816 74.9995 49.9986 74.9995C46.7156 74.9995 43.4648 74.3529 40.4319 73.0966C37.3986 71.8402 34.6429 69.9985 32.3213 67.6773C30 65.356 28.1586 62.6 26.9022 59.5671C25.6459 56.5338 24.9993 53.283 24.9993 50H0Z" fill="url(#paint0_linear_121_7919)"/>
<path d="M99.9971 49.9986C99.9971 36.7382 94.7293 24.0208 85.3528 14.6442C75.9762 5.2677 63.2589 1.7389e-06 49.9985 0C36.7382 -1.73889e-06 24.0209 5.2677 14.6443 14.6442C5.2677 24.0208 0 36.7382 0 49.9986H15.6248C20.8023 49.9986 24.8402 45.6597 26.7366 40.8418C27.9817 37.6787 29.8711 34.7718 32.3213 32.3213C37.0095 27.6331 43.3683 24.9993 49.9985 24.9993C56.6287 24.9993 62.9875 27.6331 67.6758 32.3213C72.3641 37.0096 74.9977 49.9986 74.9977 49.9986H99.9971Z" fill="url(#paint1_linear_121_7919)"/>
<defs>
<linearGradient id="paint0_linear_121_7919" x1="3.27825e-06" y1="74.9995" x2="99.9972" y2="74.9995" gradientUnits="userSpaceOnUse">
<stop stop-color="#F8BCC6"/>
<stop offset="1" stop-color="#F83758"/>
</linearGradient>
<linearGradient id="paint1_linear_121_7919" x1="99.9971" y1="24.9993" x2="0" y2="24.9993" gradientUnits="userSpaceOnUse">
<stop stop-color="#CFE2FC"/>
<stop offset="1" stop-color="#4392F9"/>
</linearGradient>
</defs>
</svg>
